<?xml version="1.0" encoding="utf-8"?><!-- Generator: Adobe Illustrator 15.0.0, SVG Export Plug-In . SVG Version: 6.00 Build 0)  --><!DOCTYPE svg PUBLIC "-//W3C//DTD SVG 1.1//EN" "http://www.w3.org/Graphics/SVG/1.1/DTD/svg11.dtd"><svg xmlns="http://www.w3.org/2000/svg" xmlns:xlink="http://www.w3.org/1999/xlink" viewBox="0 0 48 48" width="50px" height="50px"><g><path fill="#7C4DFF" d="M45,17v-0.339c-0.433-0.499-0.989-1.282-1.368-1.817C42.232,12.867,40.91,11,39,11c-1.603,0-3.021,1.286-5.388,3.56c-0.714,0.685-1.815,1.742-2.495,2.236c-0.445-0.483-1.073-1.37-1.486-1.954C28.23,12.866,26.909,11,25.001,11c-1.602,0-3.02,1.285-5.386,3.557c-0.715,0.687-1.817,1.745-2.498,2.238c-0.444-0.482-1.071-1.367-1.483-1.949C14.232,12.868,12.909,11,10.999,11c-1.601,0-3.017,1.285-5.382,3.556C4.857,15.285,3.664,16.43,3,16.876V17v4c1.603,0,3.021-1.286,5.388-3.56c0.714-0.685,1.815-1.742,2.495-2.236c0.445,0.483,1.073,1.37,1.486,1.954c1.4,1.976,2.722,3.842,4.63,3.842c1.602,0,3.02-1.285,5.386-3.557c0.715-0.687,1.817-1.745,2.498-2.238c0.444,0.482,1.071,1.367,1.483,1.949C27.768,19.132,29.091,21,31.001,21c1.601,0,3.017-1.285,5.382-3.556c0.715-0.687,1.819-1.746,2.5-2.24c0.444,0.482,1.072,1.369,1.485,1.952C41.768,19.133,43.09,21,45,21V17z"/><path fill="#7C4DFF" d="M45,33v-0.339c-0.433-0.499-0.989-1.282-1.368-1.817C42.232,28.867,40.91,27,39,27c-1.603,0-3.021,1.286-5.388,3.56c-0.714,0.685-1.815,1.742-2.495,2.236c-0.445-0.483-1.073-1.37-1.486-1.954C28.23,28.866,26.909,27,25.001,27c-1.602,0-3.02,1.285-5.386,3.557c-0.715,0.687-1.817,1.745-2.498,2.238c-0.444-0.482-1.071-1.367-1.483-1.949C14.232,28.868,12.909,27,10.999,27c-1.601,0-3.017,1.285-5.382,3.556C4.857,31.285,3.664,32.43,3,32.876V33v4c1.603,0,3.021-1.286,5.388-3.56c0.714-0.685,1.815-1.742,2.495-2.236c0.445,0.483,1.073,1.37,1.486,1.954c1.4,1.976,2.722,3.842,4.63,3.842c1.602,0,3.02-1.285,5.386-3.557c0.715-0.687,1.817-1.745,2.498-2.238c0.444,0.482,1.071,1.367,1.483,1.949C27.768,35.132,29.091,37,31.001,37c1.601,0,3.017-1.285,5.382-3.556c0.715-0.687,1.819-1.746,2.5-2.24c0.444,0.482,1.072,1.369,1.485,1.952C41.768,35.133,43.09,37,45,37V33z"/></g><g><path fill="#512DA8" d="M10.883,15.204c0.445,0.483,1.073,1.37,1.486,1.954c1.4,1.976,2.722,3.842,4.63,3.842c0.869,0,1.689-0.391,2.631-1.1c-0.749-0.363-2.5-3.114-2.513-3.105c-0.444-0.482-1.071-1.367-1.483-1.949c-0.441-0.623-0.876-1.227-1.323-1.773C14.205,13.028,14.101,13,14,13c-0.52,0-1.79,1.001-3.169,2.246C10.847,15.234,10.867,15.215,10.883,15.204z"/><path fill="#512DA8" d="M24.883,15.205c0.444,0.482,1.071,1.367,1.483,1.949C27.768,19.132,29.091,21,31.001,21c0.869,0,1.688-0.391,2.629-1.1c-0.75-0.362-2.5-3.113-2.513-3.104c-0.445-0.483-1.073-1.37-1.486-1.954c-0.44-0.621-0.875-1.225-1.32-1.77C28.205,13.028,28.101,13,28,13c-0.521,0-1.795,1.005-3.177,2.253C24.841,15.239,24.865,15.218,24.883,15.205z"/><path fill="#512DA8" d="M45,17v-0.339c-0.433-0.499-0.989-1.282-1.368-1.817c-0.438-0.618-0.869-1.219-1.313-1.762C42.208,13.033,42.101,13,42,13c-0.52,0-1.79,1.001-3.169,2.246c0.016-0.012,0.036-0.031,0.052-0.042c0.444,0.482,1.072,1.369,1.485,1.952C41.768,19.133,43.09,21,45,21V17z"/><path fill="#512DA8" d="M10.883,31.204c0.445,0.483,1.073,1.37,1.486,1.954c1.4,1.976,2.722,3.842,4.63,3.842c0.869,0,1.689-0.391,2.631-1.1c-0.749-0.363-2.5-3.114-2.513-3.105c-0.444-0.482-1.071-1.367-1.483-1.949c-0.441-0.623-0.876-1.227-1.323-1.773C14.205,29.028,14.101,29,14,29c-0.52,0-1.79,1.001-3.169,2.246C10.847,31.234,10.867,31.215,10.883,31.204z"/><path fill="#512DA8" d="M24.883,31.205c0.444,0.482,1.071,1.367,1.483,1.949C27.768,35.132,29.091,37,31.001,37c0.869,0,1.688-0.391,2.629-1.1c-0.75-0.362-2.5-3.113-2.513-3.104c-0.445-0.483-1.073-1.37-1.486-1.954c-0.44-0.621-0.875-1.225-1.32-1.77C28.205,29.028,28.101,29,28,29c-0.521,0-1.795,1.005-3.177,2.253C24.841,31.239,24.865,31.218,24.883,31.205z"/><path fill="#512DA8" d="M45,33v-0.339c-0.433-0.499-0.989-1.282-1.368-1.817c-0.438-0.618-0.869-1.219-1.313-1.762C42.208,29.033,42.101,29,42,29c-0.52,0-1.79,1.001-3.169,2.246c0.016-0.012,0.036-0.031,0.052-0.042c0.444,0.482,1.072,1.369,1.485,1.952C41.768,35.133,43.09,37,45,37V33z"/></g></svg>