<?xml version="1.0" encoding="utf-8"?><!-- Generator: Adobe Illustrator 21.0.2, SVG Export Plug-In . SVG Version: 6.00 Build 0)  --><svg xmlns="http://www.w3.org/2000/svg" xmlns:xlink="http://www.w3.org/1999/xlink" viewBox="0 0 48 48" width="50px" height="50px"><g id="surface1"><path style="fill:#7C4DFF;" d="M26,42l-4,0l0-2c0-0.2,0-0.4,0-0.6c-0.1-2.4-0.5-9.6-1.9-16.5C18.5,14.8,16,10,13.4,10c0,0,0,0,0,0   c-3.3,0-3.4,3.6-3.4,4H6c0-3.2,2-8,7.4-8c0,0,0,0,0,0c5,0,8.4,5.2,10.6,15.9C26.2,11.2,29.7,6,34.7,6c0,0,0,0,0,0   C40,6,42,10.8,42,14h-4c0-0.7-0.2-4-3.3-4h0c-2.6,0-5.1,4.8-6.8,12.9C26.5,29.8,26.1,37,26,39.4c0,0.2,0,0.4,0,0.6L26,42z"/><path style="fill:#512DA8;" d="M24,21.9c0,0.1,0,0.2,0.1,0.3C25.6,29.5,26,37,26,39.5c0-0.3,0-0.8,0.1-1.3c0,0,0,0,0-0.1   c0-0.3,0-0.5,0-0.8c0,0,0,0,0-0.1c0.1-1.6,0.3-3.8,0.5-6.2c0,0,0,0,0,0c0-3.6,0.2-11.7-0.2-17.4C25.5,15.8,24.7,18.6,24,21.9   C24,21.9,24,21.9,24,21.9z"/></g></svg>