<?xml version="1.0" encoding="utf-8"?><!-- Generator: Adobe Illustrator 21.0.2, SVG Export Plug-In . SVG Version: 6.00 Build 0)  --><svg xmlns="http://www.w3.org/2000/svg" xmlns:xlink="http://www.w3.org/1999/xlink" viewBox="0 0 48 48" width="50px" height="50px"><g id="surface1"><path style="fill:#7C4DFF;" d="M34.5,27c-4.1,0-7.5-3.4-7.5-7.5s3.4-7.5,7.5-7.5s7.5,3.4,7.5,7.5S38.6,27,34.5,27z M34.5,16   c-1.9,0-3.5,1.6-3.5,3.5s1.6,3.5,3.5,3.5s3.5-1.6,3.5-3.5S36.4,16,34.5,16z"/><path style="fill:#7C4DFF;" d="M38,19.3C38,19,36.8,12,23.4,12c-9,0-14,4.4-14.1,4.5l-2.7-3C6.9,13.3,12.8,8,23.4,8   C40.6,8,41.9,18.3,42,18.8L38,19.3z"/><path style="fill:#7C4DFF;" d="M13.5,36C9.4,36,6,32.6,6,28.5S9.4,21,13.5,21s7.5,3.4,7.5,7.5S17.6,36,13.5,36z M13.5,25   c-1.9,0-3.5,1.6-3.5,3.5s1.6,3.5,3.5,3.5s3.5-1.6,3.5-3.5S15.4,25,13.5,25z"/><path style="fill:#7C4DFF;" d="M24.6,40C7.4,40,6.1,29.7,6,29.2l4-0.5C10,29,11.2,36,24.6,36c9,0,14-4.4,14.1-4.5l2.7,3   C41.1,34.7,35.2,40,24.6,40z"/><path style="fill:#512DA8;" d="M30.9,12.9c1.1-0.6,2.3-0.9,3.6-0.9c2.5,0,4.8,1.3,6.1,3.2c-1.1-1.7-2.9-3.7-6.2-5.2   c-3.2-0.6-7.3,0.2-10.1,2C27,12.1,29.1,12.4,30.9,12.9z"/><path style="fill:#512DA8;" d="M17.1,35.1c-1.1,0.6-2.3,0.9-3.6,0.9c-2.5,0-4.8-1.3-6.1-3.2c1.1,1.7,2.9,3.7,6.2,5.2   c3.2,0.6,7.3-0.2,10.1-2C21,35.9,18.9,35.6,17.1,35.1z"/></g></svg>