<?xml version="1.0" encoding="utf-8"?><!-- Generator: Adobe Illustrator 21.0.2, SVG Export Plug-In . SVG Version: 6.00 Build 0)  --><svg xmlns="http://www.w3.org/2000/svg" xmlns:xlink="http://www.w3.org/1999/xlink" viewBox="0 0 48 48" width="50px" height="50px"><g id="surface1"><path style="fill:#7C4DFF;" d="M13,31H9V15c0-4.1-3.9-6.2-3.9-6.2l1.9-3.5C7.2,5.4,13,8.5,13,15V31z"/><path style="fill:#7C4DFF;" d="M17,43v-4c4.8,0,6.7-2.1,8.1-4.8C23.7,31.9,23,28.8,23,25V14c0-4.5-3.5-5-5-5c-4.7,0-5,4.2-5,5l-4,0   c0-3.6,2.4-9,9-9c5.4,0,9,3.6,9,9v11c0,1.7,0.1,3.1,0.4,4.3C28.7,27,30.5,25,34,25c4.6,0,8,3,8,7s-3.4,7-8,7   c-2.4,0-4.4-0.6-6.1-1.7C26.1,40.3,23.1,43,17,43z M29.7,33.6C31.3,35,33.1,35,34,35c2,0,4-1,4-3s-2-3-4-3   C32,29,31.2,30.2,29.7,33.6C29.8,33.6,29.7,33.6,29.7,33.6z"/><path style="fill:#512DA8;" d="M32.1,34.8c-0.8-0.2-1.6-0.5-2.4-1.2c-0.5,1.1-1.1,2.4-1.8,3.6c0.9,0.6,1.9,1.1,3,1.4   C31.5,37.3,31.8,36,32.1,34.8z"/><path style="fill:#512DA8;" d="M25.1,34.1c0.4-0.7,0.7-1.4,1-2.2c0.4-0.9,0.8-1.8,1.3-2.7c-0.2-0.9-0.4-2.1-0.4-3.3   c-1.7,1.2-2.7,2.8-3.4,4.4C23.9,31.7,24.4,33,25.1,34.1z"/><path style="fill:#512DA8;" d="M6.9,5.2L5.1,8.8C5.2,8.9,9,11,9,15c0-1.7,0.5-4.7,1.7-6.5C9.1,6.4,7.1,5.3,6.9,5.2z"/></g></svg>