<?xml version="1.0" encoding="utf-8"?><!-- Generator: Adobe Illustrator 21.0.2, SVG Export Plug-In . SVG Version: 6.00 Build 0)  --><svg xmlns="http://www.w3.org/2000/svg" xmlns:xlink="http://www.w3.org/1999/xlink" viewBox="0 0 48 48" width="50px" height="50px"><g id="surface1"><path style="fill:#7C4DFF;" d="M24,13c-9.2,0-16.5-3-16.8-3.2l1.6-3.7C8.8,6.2,15.7,9,24,9s15.2-2.8,15.2-2.8l1.6,3.7   C40.5,10,33.2,13,24,13z"/><path style="fill:#7C4DFF;" d="M39.2,41.8c-0.1,0-6.9-2.8-15.2-2.8S8.8,41.8,8.8,41.8l-1.6-3.7C7.5,38,14.8,35,24,35   c9.2,0,16.5,3,16.8,3.2L39.2,41.8z"/><rect x="28" y="10" style="fill:#7C4DFF;" width="4" height="29"/><rect x="16" y="10" style="fill:#7C4DFF;" width="4" height="29"/><path style="fill:#512DA8;" d="M32,12.5c-1.2,0.2-2.6,0.4-4,0.5v3c1.4-0.1,2.7-0.3,4-0.5V12.5z"/><path style="fill:#512DA8;" d="M20,13c-1.4-0.1-2.8-0.3-4-0.5v3c1.3,0.2,2.6,0.4,4,0.5V13z"/><path style="fill:#512DA8;" d="M28,35.2c1.4,0.1,2.8,0.3,4,0.5v-3c-1.3-0.2-2.6-0.4-4-0.5V35.2z"/><path style="fill:#512DA8;" d="M20,35.2v-3c-1.4,0.1-2.7,0.3-4,0.5v3C17.2,35.5,18.6,35.3,20,35.2z"/></g></svg>