<?xml version="1.0" encoding="utf-8"?><!-- Generator: Adobe Illustrator 21.0.2, SVG Export Plug-In . SVG Version: 6.00 Build 0)  --><svg xmlns="http://www.w3.org/2000/svg" xmlns:xlink="http://www.w3.org/1999/xlink" viewBox="0 0 48 48" width="50px" height="50px"><g id="surface1"><path style="fill:#7C4DFF;" d="M15.5,36C11.4,36,8,32.6,8,28.5c0-4.1,3.4-7.5,7.5-7.5c4.1,0,7.5,3.4,7.5,7.5   C23,32.6,19.6,36,15.5,36z M15.5,25c-1.9,0-3.5,1.6-3.5,3.5c0,1.9,1.6,3.5,3.5,3.5c1.9,0,3.5-1.6,3.5-3.5C19,26.6,17.4,25,15.5,25z   "/><path style="fill:#7C4DFF;" d="M32.1,42c-4,0-7.1-3.2-7.1-7.3h4c0,1.9,1.3,3.3,3.1,3.3c1.1,0,2.6-0.9,3.2-2l3.5,2   C37.4,40.4,34.7,42,32.1,42z"/><path style="fill:#7C4DFF;" d="M27,36.7c-1.1,0-2-0.9-2-2c0-3.5,2.3-6.3,4.5-8.9c2.3-2.8,4.5-5.4,4.5-9.1c0-3.7-3-6.7-6.6-6.7   c-3.6,0-6.4,2.9-6.4,6.7c0,3,0.5,4.6,1,6.3c0.5,1.7,1,3.4,1,6c0,1.1-0.9,2-2,2s-2-0.9-2-2c0-2.1-0.4-3.4-0.8-4.9   c-0.5-1.8-1.2-3.9-1.2-7.5C17,10.7,21.6,6,27.4,6C33.3,6,38,10.8,38,16.7c0,5.2-2.9,8.6-5.5,11.7c-1.9,2.3-3.5,4.2-3.5,6.3   C29,35.8,28.1,36.7,27,36.7z"/><path style="fill:#512DA8;" d="M23,28.1C23,28,23,28,23,28.1c0-0.2,0-0.3,0-0.4c0,0,0,0,0-0.1c0,0.4,0,0.7,0.1,1.1c0,0,0,0,0,0   C23,28.5,23,28.2,23,28.1z"/><path style="fill:#512DA8;" d="M22.9,29.5c0-0.2,0.1-0.3,0.1-0.5c0-0.1,0-0.2,0-0.3C23,29,23,29.2,22.9,29.5z"/><path style="fill:#512DA8;" d="M17,18.2c0.1,1.2,0.2,2.2,0.4,3.1c2.9,0.8,5.1,3.3,5.5,6.3C22.6,23.3,20.8,19.1,17,18.2z"/><path style="fill:#512DA8;" d="M32.1,38c-1.8,0-3.1-1.4-3.1-3.3c0-0.9,0.3-1.8,0.8-2.7c-1.1,1.2-1.8,2.8-1.8,4.5   c0,2.2,1.1,4.2,2.9,5.4c0.4,0.1,0.8,0.1,1.2,0.1c2.7,0,5.4-1.8,6.7-4l-3.5-2C34.7,37,33.4,38,32.1,38z"/></g></svg>