<?xml version="1.0" encoding="utf-8"?><!-- Generator: Adobe Illustrator 21.0.2, SVG Export Plug-In . SVG Version: 6.00 Build 0)  --><svg xmlns="http://www.w3.org/2000/svg" xmlns:xlink="http://www.w3.org/1999/xlink" viewBox="0 0 48 48" width="50px" height="50px"><g id="surface1"><rect x="5" y="36" style="fill:#7C4DFF;" width="38" height="4"/><rect x="29" y="28" style="fill:#7C4DFF;" width="14" height="4"/><rect x="5" y="28" style="fill:#7C4DFF;" width="14" height="4"/><path style="fill:#7C4DFF;" d="M24,7C15.7,7,9,12.8,9,20c0,5.5,5.7,10,9.1,11.8L19,30v-2.3c-3.1-1.9-6-5-6-7.7c0-4.9,5-9,11-9   s11,4.1,11,9c0,2.7-2.9,5.8-6,7.7V30l0.9,1.8C33.3,30,39,25.5,39,20C39,12.8,32.3,7,24,7z"/><path style="fill:#512DA8;" d="M11,22c0,2.5,1,4.9,2.7,6.7c1.5,1.3,3.6,2.7,5.3,3.3v-4.3c-3.1-1.9-6-5-6-7.7c0-4.9,5-9,11-9   C16.8,11,11,15.9,11,22z"/><path style="fill:#512DA8;" d="M37,22c0-6.1-5.8-11-13-11c6,0,11,4.1,11,9c0,2.7-2.9,5.8-6,7.7V32c1.6-0.6,3.8-1.9,5.3-3.3   C36,26.9,37,24.5,37,22z"/></g></svg>