<?xml version="1.0" encoding="utf-8"?><!-- Generator: Adobe Illustrator 21.0.2, SVG Export Plug-In . SVG Version: 6.00 Build 0)  --><svg xmlns="http://www.w3.org/2000/svg" xmlns:xlink="http://www.w3.org/1999/xlink" viewBox="0 0 48 48" width="50px" height="50px"><g id="surface1"><path style="fill:#7C4DFF;" d="M33.6,42.4C33.3,42.2,27,35.7,27,24s6.3-18.2,6.6-18.4l2.8,2.8L35,7l1.4,1.4C36.4,8.5,31,14,31,24   c0,10.1,5.4,15.5,5.4,15.6L33.6,42.4z"/><path style="fill:#7C4DFF;" d="M14.4,42.4l-2.8-2.8c0,0,5.4-5.6,5.4-15.6c0-10.1-5.4-15.5-5.4-15.6l2.8-2.8C14.7,5.8,21,12.3,21,24   S14.7,42.2,14.4,42.4z"/><rect x="13" y="22" style="fill:#7C4DFF;" width="22" height="4"/><path style="fill:#512DA8;" d="M27.1,22h4c0.1-1.1,0.2-2.1,0.4-3h-4.1C27.3,20,27.1,20.9,27.1,22z"/><path style="fill:#512DA8;" d="M16.9,22h4c-0.1-1.1-0.2-2-0.3-3h-4.1C16.7,19.9,16.8,20.9,16.9,22z"/><path style="fill:#512DA8;" d="M31.1,26h-4c0.1,1.1,0.2,2,0.3,3h4.1C31.3,28.1,31.2,27.1,31.1,26z"/><path style="fill:#512DA8;" d="M20.9,26h-4c-0.1,1.1-0.2,2.1-0.4,3h4.1C20.7,28,20.9,27.1,20.9,26z"/></g></svg>