<?xml version="1.0" encoding="utf-8"?><!-- Generator: Adobe Illustrator 21.0.2, SVG Export Plug-In . SVG Version: 6.00 Build 0)  --><svg xmlns="http://www.w3.org/2000/svg" xmlns:xlink="http://www.w3.org/1999/xlink" viewBox="0 0 48 48" width="50px" height="50px"><g id="surface1"><path style="fill:#7C4DFF;" d="M25,36h-4V14.1c0-0.8-0.6-5.1-3-5.1c-3,0-3,5-3,5h-4c0-4.3,2.2-9,7-9c5.1,0,7,5.6,7,9.1V36z"/><path style="fill:#7C4DFF;" d="M38,42.8l-1.4-1.4c-0.1-0.1-0.2-0.2-0.3-0.3C34.8,39.8,31,36.2,31,30V14.1c0-0.8-0.6-5.1-3-5.1   c-3,0-3,5-3,5v2h-4v-2c0-4.3,2.2-9,7-9c5.1,0,7,5.6,7,9.1V30c0,4.5,2.7,7,4,8.2c0.2,0.2,0.3,0.3,0.4,0.4l1.4,1.4L38,42.8z"/><polygon style="fill:#7C4DFF;" points="42,43 32,43 32,39 38,39 38,33 42,33  "/><path style="fill:#7C4DFF;" d="M15,36h-4V14c0-4.1-3.9-6.2-3.9-6.2l1.9-3.5C9.2,4.4,15,7.5,15,14V36z"/><path style="fill:#512DA8;" d="M21,14c0-2.3,0.6-4.7,1.9-6.5c-0.4-0.6-1-1.1-1.6-1.5c-1.1,0.8-1.9,1.9-2.5,3.2   C20.6,10.1,21,13.4,21,14L21,14z"/><path style="fill:#512DA8;" d="M8.9,4.2L7.1,7.8C7.2,7.9,11,10,11,14c0-1.7,0.6-4.6,1.9-6.3C11.2,5.5,9.1,4.3,8.9,4.2z"/></g></svg>