<?xml version="1.0" encoding="utf-8"?><!-- Generator: Adobe Illustrator 21.0.2, SVG Export Plug-In . SVG Version: 6.00 Build 0)  --><svg xmlns="http://www.w3.org/2000/svg" xmlns:xlink="http://www.w3.org/1999/xlink" viewBox="0 0 48 48" width="50px" height="50px"><g id="surface1"><path style="fill:#7C4DFF;" d="M24,42c-7.2,0-13-5.8-13-13c0-7.2,5.8-13,13-13c7.2,0,13,5.8,13,13C37,36.2,31.2,42,24,42z M24,20   c-5,0-9,4-9,9c0,5,4,9,9,9c5,0,9-4,9-9C33,24,29,20,24,20z"/><path style="fill:#7C4DFF;" d="M24,20v-4c4.1,0,5.1-1.8,6.6-4.4C32.2,8.7,34.3,5,41,5v4c-4.4,0-5.5,1.9-6.9,4.6   C32.4,16.4,30.4,20,24,20z"/><path style="fill:#7C4DFF;" d="M24,20c-6.4,0-8.4-3.6-10.1-6.4C12.5,10.9,11.4,9,7,9V5c6.7,0,8.8,3.7,10.4,6.6   c1.5,2.7,2.5,4.4,6.6,4.4V20z"/><path style="fill:#512DA8;" d="M11,29c0,0.7,0.1,1.3,0.2,2c1-6.2,6.3-11,12.8-11c-3.2,0-5.3-0.9-6.8-2.1C13.5,20.2,11,24.3,11,29z"/><path style="fill:#512DA8;" d="M30.8,17.9C29.3,19.1,27.2,20,24,20c6.5,0,11.9,4.8,12.8,11c0.1-0.7,0.2-1.3,0.2-2   C37,24.3,34.5,20.2,30.8,17.9z"/></g></svg>