<?xml version="1.0" encoding="utf-8"?><!-- Generator: Adobe Illustrator 21.0.2, SVG Export Plug-In . SVG Version: 6.00 Build 0)  --><svg xmlns="http://www.w3.org/2000/svg" xmlns:xlink="http://www.w3.org/1999/xlink" viewBox="0 0 48 48" width="50px" height="50px"><g id="surface1"><path style="fill:#7C4DFF;" d="M25,37h-4V15.1c0-0.8-0.6-5.1-3-5.1c-3,0-3,5-3,5h-4c0-4.3,2.2-9,7-9c5.1,0,7,5.6,7,9.1V37z"/><path style="fill:#7C4DFF;" d="M38,43.8l-1.4-1.4c-0.1-0.1-0.2-0.2-0.3-0.3C34.8,40.8,31,37.2,31,31V15.1c0-0.8-0.6-5.1-3-5.1   c-3,0-3,5-3,5v2h-4v-2c0-4.3,2.2-9,7-9c5.1,0,7,5.6,7,9.1V31c0,4.5,2.7,7,4,8.2c0.2,0.2,0.3,0.3,0.4,0.4l1.4,1.4L38,43.8z"/><path style="fill:#7C4DFF;" d="M15,37h-4V15c0-4.1-3.9-6.2-3.9-6.2l1.9-3.5C9.2,5.4,15,8.5,15,15V37z"/><path style="fill:#7C4DFF;" d="M27.5,42.9l-1-3.9C35.9,36.7,38,27.4,38,24c0-1.7,0-7-1-7c-0.8,0-2,3.2-2,6h-4c0-2.8,1.1-10,6-10   c5,0,5,6.4,5,11C42,28.2,39.4,39.9,27.5,42.9z"/><path style="fill:#512DA8;" d="M20.9,15c0-2.3,0.6-4.7,1.9-6.5c-0.4-0.6-1-1.1-1.6-1.5c-1.1,0.8-1.9,1.9-2.5,3.2   C20.5,11.1,20.9,14.4,20.9,15L20.9,15z"/><path style="fill:#512DA8;" d="M8.9,5.2L7,8.8c0.2,0.1,3.9,2.2,3.9,6.2c0-1.7,0.6-4.6,1.9-6.3C11.1,6.5,9,5.3,8.9,5.2z"/><path style="fill:#512DA8;" d="M37,37.1c-0.8,1-1.8,1.9-2.9,2.7c0.8,1,1.6,1.7,2.1,2.2c1.1-0.8,2.1-1.8,2.9-2.8   c0,0-0.1-0.1-0.1-0.1C38.5,38.7,37.7,38,37,37.1z"/><path style="fill:#512DA8;" d="M35.1,32C35.1,32,35.1,32,35.1,32c0-0.4-0.1-0.7-0.1-1v-2.1c-1.1,1.4-2.5,2.8-3.8,4.2   c0.1,0.6,0.2,1.1,0.4,1.6c0,0,0,0.1,0,0.1c0.1,0.5,0.3,1,0.5,1.5v0c1.3-1,2.3-2.2,3.1-3.4C35.1,32.6,35.1,32.3,35.1,32z"/></g></svg>